<?xml version="1.0" encoding="iso-8859-1"?>
<!-- Generator: Adobe Illustrator 28.0.0, SVG Export Plug-In . SVG Version: 6.00 Build 0)  -->
<svg version="1.1" xmlns="http://www.w3.org/2000/svg" xmlns:xlink="http://www.w3.org/1999/xlink" x="0px" y="0px"
	 width="101.537px" height="336.554px" viewBox="0 0 101.537 336.554" enable-background="new 0 0 101.537 336.554"
	 xml:space="preserve">
<g id="guides">
</g>
<g id="Layer_1">
	<g>
		<path fill="#EACE00" d="M0.38,336.554c6.589-11.408,12.74-23.263,18.444-35.557c5.704-12.3,10.708-25.349,15.021-39.17
			c4.308-13.814,7.665-28.391,10.078-43.732c2.406-15.337,3.613-31.499,3.613-48.487c0-18.253-1.207-35.366-3.613-51.339
			c-2.413-15.972-5.705-30.862-9.888-44.684c-4.183-13.814-9.192-26.81-15.021-38.979C13.179,22.437,6.845,10.903,0,0h44.113
			c7.606,9.887,14.831,20.915,21.676,33.085c6.845,12.169,12.93,25.42,18.254,39.739c5.324,14.326,9.566,29.538,12.74,45.635
			c3.167,16.103,4.753,33.15,4.753,51.148c0,17.493-1.586,34.036-4.753,49.628c-3.173,15.592-7.416,30.298-12.74,44.113
			c-5.324,13.821-11.474,26.811-18.444,38.979c-6.976,12.169-14.261,23.578-21.867,34.226H0.38z"/>
	</g>
</g>
<g id="Layer_3">
</g>
</svg>
