<?xml version="1.0" encoding="iso-8859-1"?>
<!-- Generator: Adobe Illustrator 28.0.0, SVG Export Plug-In . SVG Version: 6.00 Build 0)  -->
<svg version="1.1" xmlns="http://www.w3.org/2000/svg" xmlns:xlink="http://www.w3.org/1999/xlink" x="0px" y="0px"
	 width="217.524px" height="272.286px" viewBox="0 0 217.524 272.286" enable-background="new 0 0 217.524 272.286"
	 xml:space="preserve">
<g id="guides">
</g>
<g id="Layer_1">
	<g>
		<path fill="#FFF80D" d="M108.762,272.286c-16.733,0-31.754-3.232-45.064-9.697s-24.719-15.592-34.226-27.381
			s-16.798-26.05-21.867-42.782C2.531,175.692,0,156.934,0,136.143c0-20.785,2.597-39.609,7.796-56.473
			c5.193-16.857,12.549-31.184,22.057-42.973c9.507-11.788,20.975-20.85,34.416-27.19C77.703,3.173,92.659,0,109.143,0
			c16.732,0,31.813,3.173,45.254,9.507c13.435,6.341,24.844,15.402,34.226,27.19c9.376,11.789,16.542,26.05,21.486,42.783
			c4.943,16.732,7.416,35.622,7.416,56.662c0,20.791-2.472,39.55-7.416,56.283c-4.944,16.732-12.11,30.993-21.486,42.782
			c-9.382,11.789-20.791,20.916-34.226,27.381C140.956,269.054,125.744,272.286,108.762,272.286z M109.143,228.173
			c9.632,0,17.933-2.151,24.909-6.465c6.97-4.309,12.609-10.458,16.923-18.444c4.308-7.986,7.475-17.684,9.507-29.092
			c2.026-11.409,3.042-24.083,3.042-38.029c0-13.69-1.016-26.239-3.042-37.648c-2.032-11.408-5.264-21.105-9.697-29.092
			c-4.438-7.986-10.078-14.195-16.923-18.634c-6.845-4.433-15.086-6.655-24.718-6.655c-9.638,0-17.939,2.223-24.909,6.655
			c-6.976,4.438-12.68,10.647-17.113,18.634c-4.438,7.986-7.736,17.624-9.887,28.902C55.076,109.588,54,122.203,54,136.143
			c0,13.69,1.076,26.24,3.233,37.648c2.151,11.409,5.449,21.106,9.887,29.093c4.433,7.985,10.137,14.201,17.113,18.634
			C91.204,225.956,99.504,228.173,109.143,228.173z"/>
	</g>
</g>
<g id="Layer_3">
</g>
</svg>
