<?xml version="1.0" encoding="iso-8859-1"?>
<!-- Generator: Adobe Illustrator 28.0.0, SVG Export Plug-In . SVG Version: 6.00 Build 0)  -->
<svg version="1.1" xmlns="http://www.w3.org/2000/svg" xmlns:xlink="http://www.w3.org/1999/xlink" x="0px" y="0px"
	 width="209.543px" height="328.137px" viewBox="0 0 209.543 328.137" enable-background="new 0 0 209.543 328.137"
	 xml:space="preserve">
<g id="guides">
</g>
<g id="Layer_1">
	<g>
		<g>
			<g>
				<path fill="#1B5400" d="M46.927,0l60.465,0.157l20.776,53.674l-40.31-0.104L46.927,0z"/>
			</g>
		</g>
		<g>
			<g>
				<path fill="#A7CA00" d="M105.888,328.137c-14.706-0.038-28.516-1.851-41.437-5.433c-12.92-3.58-24.125-8.809-33.614-15.679
					c-9.49-6.87-17.014-15.315-22.562-25.349C2.722,271.651-0.034,260.045,0,246.86c0.042-16.222,4.387-30.28,13.039-42.178
					c8.647-11.892,20.209-20.608,34.675-26.15l0.003-1.141c-11.651-5.354-20.635-12.157-26.948-20.415
					c-6.319-8.252-9.458-18.718-9.426-31.397c0.029-11.153,2.336-20.97,6.922-29.455c4.586-8.479,11.069-15.688,19.451-21.626
					c8.382-5.932,18.406-10.41,30.078-13.423c11.666-3.012,24.475-4.499,38.42-4.463c14.196,0.036,26.997,1.592,38.397,4.663
					c11.4,3.072,21.086,7.536,29.057,13.386c7.971,5.856,14.162,13.032,18.578,21.535c4.411,8.509,6.608,18.212,6.58,29.109
					c-0.032,12.169-3.232,22.559-9.589,31.157c-6.362,8.605-15.252,15.553-26.674,20.848l-0.003,1.141
					c14.438,5.111,25.884,13.508,34.351,25.188c8.46,11.687,12.673,25.513,12.632,41.484c-0.035,13.44-2.669,25.347-7.889,35.726
					c-5.226,10.385-12.474,19.048-21.744,25.994c-9.276,6.952-20.252,12.247-32.936,15.887
					C134.284,326.368,120.589,328.175,105.888,328.137z M104.856,286.303c15.211,0.039,27.581-3.667,37.107-11.123
					c9.525-7.449,14.305-17.391,14.338-29.814c0.035-13.435-4.376-24.16-13.226-32.169c-8.857-8.009-21.265-12.034-37.237-12.075
					c-15.971-0.042-28.662,3.918-38.059,11.879c-9.404,7.962-14.119,18.664-14.154,32.099c-0.034,12.929,4.503,23.018,13.611,30.267
					C76.345,282.615,88.885,286.261,104.856,286.303z M105.172,164.991c13.69,0.035,24.281-3.17,31.779-9.615
					c7.492-6.444,11.257-14.86,11.284-25.259c0.027-10.393-3.694-18.703-11.153-24.938c-7.465-6.229-18.04-9.364-31.73-9.399
					c-13.69-0.036-24.346,3.044-31.968,9.234c-7.622,6.194-11.446,14.485-11.474,24.878c-0.027,10.398,3.754,18.834,11.343,25.318
					S91.482,164.955,105.172,164.991z"/>
			</g>
		</g>
	</g>
</g>
<g id="Layer_3">
</g>
</svg>
