<?xml version="1.0" encoding="utf-8"?>
<!-- Generator: Adobe Illustrator 24.1.2, SVG Export Plug-In . SVG Version: 6.00 Build 0)  -->
<svg version="1.1" id="Layer_1" xmlns="http://www.w3.org/2000/svg" xmlns:xlink="http://www.w3.org/1999/xlink" x="0px" y="0px"
	 viewBox="0 0 54 8" style="enable-background:new 0 0 54 8;" xml:space="preserve">
<style type="text/css">
	.st0{fill:#0000E1;}
</style>
<g>
	<path class="st0" d="M0.3,6.9V0.5h1.2v3.4L3,2.3h1.5L2.9,4l1.7,3H3.3L2.1,4.8L1.5,5.4v1.5H0.3z"/>
	<path class="st0" d="M6.3,3.7L5.2,3.5c0.1-0.5,0.3-0.8,0.7-1s0.8-0.3,1.4-0.3c0.6,0,1,0.1,1.2,0.2C8.7,2.5,8.9,2.7,9,2.9
		C9.1,3.1,9.1,3.4,9.1,4l0,1.4c0,0.4,0,0.7,0.1,0.9c0,0.2,0.1,0.4,0.2,0.6H8.2c0-0.1-0.1-0.2-0.1-0.4c0-0.1,0-0.1,0-0.1
		C7.8,6.6,7.6,6.8,7.3,6.9S6.8,7,6.6,7C6.1,7,5.7,6.9,5.4,6.6C5.2,6.4,5,6.1,5,5.7C5,5.4,5.1,5.2,5.2,5c0.1-0.2,0.3-0.4,0.5-0.5
		c0.2-0.1,0.6-0.2,1-0.3c0.6-0.1,1-0.2,1.2-0.3V3.8c0-0.2-0.1-0.4-0.2-0.5C7.6,3.2,7.4,3.1,7.1,3.1c-0.2,0-0.4,0-0.5,0.1
		C6.4,3.3,6.3,3.5,6.3,3.7z M7.9,4.7C7.8,4.7,7.5,4.8,7.2,4.9S6.6,5,6.5,5.1C6.3,5.2,6.3,5.4,6.3,5.5c0,0.2,0.1,0.3,0.2,0.4
		s0.3,0.2,0.5,0.2c0.2,0,0.4-0.1,0.6-0.2c0.1-0.1,0.2-0.2,0.3-0.4c0-0.1,0-0.3,0-0.6V4.7z"/>
	<path class="st0" d="M11.5,6.9h-1.2V2.3h1.1v0.7c0.2-0.3,0.4-0.5,0.5-0.6c0.2-0.1,0.3-0.1,0.5-0.1c0.3,0,0.6,0.1,0.8,0.2l-0.4,1.1
		c-0.2-0.1-0.4-0.2-0.6-0.2c-0.2,0-0.3,0-0.4,0.1c-0.1,0.1-0.2,0.3-0.3,0.5c-0.1,0.2-0.1,0.8-0.1,1.6V6.9z"/>
	<path class="st0" d="M13.9,6.9V0.5h1.2v6.4H13.9z"/>
	<path class="st0" d="M16.1,4.5c0-0.4,0.1-0.8,0.3-1.2c0.2-0.4,0.5-0.7,0.9-0.9c0.4-0.2,0.8-0.3,1.2-0.3c0.7,0,1.3,0.2,1.7,0.7
		c0.5,0.5,0.7,1,0.7,1.7c0,0.7-0.2,1.3-0.7,1.8c-0.5,0.5-1,0.7-1.7,0.7c-0.4,0-0.8-0.1-1.2-0.3c-0.4-0.2-0.7-0.5-0.9-0.9
		C16.2,5.5,16.1,5.1,16.1,4.5z M17.3,4.6c0,0.5,0.1,0.8,0.3,1.1C17.9,5.9,18.2,6,18.5,6s0.6-0.1,0.8-0.4c0.2-0.2,0.3-0.6,0.3-1.1
		c0-0.5-0.1-0.8-0.3-1.1c-0.2-0.2-0.5-0.4-0.8-0.4s-0.6,0.1-0.8,0.4C17.4,3.8,17.3,4.1,17.3,4.6z"/>
	<path class="st0" d="M25.6,6.9l-1.9-4.7h1.3l0.9,2.4l0.3,0.8c0.1-0.2,0.1-0.3,0.1-0.4c0-0.1,0.1-0.3,0.1-0.4l0.9-2.4h1.3l-1.9,4.7
		H25.6z"/>
	<path class="st0" d="M32.4,6.9V6.2c-0.2,0.2-0.4,0.4-0.7,0.6C31.5,7,31.2,7,30.9,7C30.6,7,30.3,7,30,6.8s-0.4-0.3-0.5-0.6
		c-0.1-0.2-0.2-0.6-0.2-1v-3h1.2v2.1c0,0.7,0,1.1,0.1,1.2c0,0.1,0.1,0.3,0.2,0.4c0.1,0.1,0.3,0.1,0.5,0.1c0.2,0,0.4-0.1,0.6-0.2
		c0.2-0.1,0.3-0.3,0.3-0.4c0.1-0.2,0.1-0.6,0.1-1.3v-2h1.2v4.7H32.4z"/>
	<path class="st0" d="M34.8,6.9V0.5H36v3.4l1.4-1.6H39L37.4,4l1.7,3h-1.3l-1.2-2.1L36,5.4v1.5H34.8z"/>
	<path class="st0" d="M42.6,5.4l1.2,0.2c-0.2,0.5-0.4,0.8-0.7,1C42.7,6.9,42.3,7,41.8,7C41,7,40.4,6.8,40,6.2
		c-0.3-0.4-0.5-1-0.5-1.6c0-0.8,0.2-1.4,0.6-1.8s0.9-0.7,1.5-0.7c0.7,0,1.2,0.2,1.6,0.7C43.7,3.3,43.9,4,43.9,5h-3.1
		c0,0.4,0.1,0.7,0.3,0.9c0.2,0.2,0.4,0.3,0.7,0.3c0.2,0,0.4-0.1,0.5-0.2S42.5,5.7,42.6,5.4z M42.6,4.2c0-0.4-0.1-0.6-0.3-0.8
		c-0.2-0.2-0.4-0.3-0.6-0.3c-0.3,0-0.5,0.1-0.7,0.3s-0.3,0.5-0.3,0.8H42.6z"/>
	<path class="st0" d="M44.9,6.9V0.5h1.2v6.4H44.9z"/>
	<path class="st0" d="M47.4,1.6V0.5h1.2v1.1H47.4z M47.4,6.9V2.3h1.2v4.7H47.4z"/>
	<path class="st0" d="M53.9,3.6l-1.2,0.2c0-0.2-0.1-0.4-0.3-0.5c-0.1-0.1-0.3-0.2-0.6-0.2c-0.3,0-0.6,0.1-0.7,0.3
		C51,3.7,50.9,4,50.9,4.5c0,0.6,0.1,0.9,0.3,1.2C51.3,5.9,51.6,6,51.9,6c0.2,0,0.4-0.1,0.6-0.2c0.1-0.1,0.3-0.4,0.3-0.7L54,5.3
		c-0.1,0.6-0.4,1-0.7,1.3S52.4,7,51.8,7c-0.7,0-1.2-0.2-1.6-0.6c-0.4-0.4-0.6-1-0.6-1.8c0-0.8,0.2-1.4,0.6-1.8
		c0.4-0.4,1-0.6,1.7-0.6c0.6,0,1,0.1,1.4,0.4C53.6,2.8,53.8,3.1,53.9,3.6z M51.1,1.7l0.6-1.3h1.4l-1.2,1.3H51.1z"/>
</g>
</svg>
