<?xml version="1.0" encoding="utf-8"?>
<!-- Generator: Adobe Illustrator 26.0.1, SVG Export Plug-In . SVG Version: 6.00 Build 0)  -->
<svg version="1.1" id="Layer_1" xmlns="http://www.w3.org/2000/svg" xmlns:xlink="http://www.w3.org/1999/xlink" x="0px" y="0px"
	 viewBox="0 0 200 200" style="enable-background:new 0 0 200 200;" xml:space="preserve">
<style type="text/css">
	.st0{fill:none;stroke:#BAB9B9;stroke-width:0.25;stroke-miterlimit:10;}
</style>
<g>
	<line class="st0" x1="0" y1="0" x2="200" y2="0"/>
	<line class="st0" x1="0" y1="190.48" x2="200" y2="190.48"/>
	<line class="st0" x1="0" y1="180.95" x2="200" y2="180.95"/>
	<line class="st0" x1="0" y1="171.43" x2="200" y2="171.43"/>
	<line class="st0" x1="0" y1="161.9" x2="200" y2="161.9"/>
	<line class="st0" x1="0" y1="152.38" x2="200" y2="152.38"/>
	<line class="st0" x1="0" y1="142.86" x2="200" y2="142.86"/>
	<line class="st0" x1="0" y1="133.33" x2="200" y2="133.33"/>
	<line class="st0" x1="0" y1="123.81" x2="200" y2="123.81"/>
	<line class="st0" x1="0" y1="114.29" x2="200" y2="114.29"/>
	<line class="st0" x1="0" y1="104.76" x2="200" y2="104.76"/>
	<line class="st0" x1="0" y1="95.24" x2="200" y2="95.24"/>
	<line class="st0" x1="0" y1="85.71" x2="200" y2="85.71"/>
	<line class="st0" x1="0" y1="76.19" x2="200" y2="76.19"/>
	<line class="st0" x1="0" y1="66.67" x2="200" y2="66.67"/>
	<line class="st0" x1="0" y1="57.14" x2="200" y2="57.14"/>
	<line class="st0" x1="0" y1="47.62" x2="200" y2="47.62"/>
	<line class="st0" x1="0" y1="38.1" x2="200" y2="38.1"/>
	<line class="st0" x1="0" y1="28.57" x2="200" y2="28.57"/>
	<line class="st0" x1="0" y1="19.05" x2="200" y2="19.05"/>
	<line class="st0" x1="0" y1="9.52" x2="200" y2="9.52"/>
	<path class="st0" d="M200,200"/>
	<path class="st0" d="M0,200"/>
	<line class="st0" x1="0" y1="0" x2="0" y2="200"/>
	<line class="st0" x1="190.48" y1="0" x2="190.48" y2="200"/>
	<line class="st0" x1="180.95" y1="0" x2="180.95" y2="200"/>
	<line class="st0" x1="171.43" y1="0" x2="171.43" y2="200"/>
	<line class="st0" x1="161.9" y1="0" x2="161.9" y2="200"/>
	<line class="st0" x1="152.38" y1="0" x2="152.38" y2="200"/>
	<line class="st0" x1="142.86" y1="0" x2="142.86" y2="200"/>
	<line class="st0" x1="133.33" y1="0" x2="133.33" y2="200"/>
	<line class="st0" x1="123.81" y1="0" x2="123.81" y2="200"/>
	<line class="st0" x1="114.29" y1="0" x2="114.29" y2="200"/>
	<line class="st0" x1="104.76" y1="0" x2="104.76" y2="200"/>
	<line class="st0" x1="95.24" y1="0" x2="95.24" y2="200"/>
	<line class="st0" x1="85.71" y1="0" x2="85.71" y2="200"/>
	<line class="st0" x1="76.19" y1="0" x2="76.19" y2="200"/>
	<line class="st0" x1="66.67" y1="0" x2="66.67" y2="200"/>
	<line class="st0" x1="57.14" y1="0" x2="57.14" y2="200"/>
	<line class="st0" x1="47.62" y1="0" x2="47.62" y2="200"/>
	<line class="st0" x1="38.1" y1="0" x2="38.1" y2="200"/>
	<line class="st0" x1="28.57" y1="0" x2="28.57" y2="200"/>
	<line class="st0" x1="19.05" y1="0" x2="19.05" y2="200"/>
	<line class="st0" x1="9.52" y1="0" x2="9.52" y2="200"/>
	<path class="st0" d="M200,200"/>
	<path class="st0" d="M200,0"/>
</g>
</svg>
