<?xml version="1.0" encoding="utf-8"?>
<!-- Generator: Adobe Illustrator 26.0.1, SVG Export Plug-In . SVG Version: 6.00 Build 0)  -->
<svg version="1.1" id="Layer_1" xmlns="http://www.w3.org/2000/svg" xmlns:xlink="http://www.w3.org/1999/xlink" x="0px" y="0px"
	 viewBox="0 0 1366 768" style="enable-background:new 0 0 1366 768;" xml:space="preserve">
<g>
	<path d="M696.08,123.64c1.24,8.05,2.09,15.91,2.53,23.59c0.44,7.68,0.76,15.31,0.96,22.86c0.2,7.56,0.41,15.03,0.65,22.4
		c0.24,7.38,0.83,15.11,1.8,23.21l-0.85,0.16c-0.85,0.16-1.5,0.99-1.96,2.45c0.06,0.34,0.09,0.68,0.08,1.02
		c-0.01,0.35,0.02,0.69,0.09,1.02c0.26,1.34,0.58,2.48,0.99,3.43s0.67,1.77,0.8,2.44c0.13,0.67,0.17,1.09,0.13,1.27
		c-0.04,0.19-0.07,0.62-0.08,1.31c-1.17,19.21-1.75,38.83-1.74,58.84c0.01,20.02-0.22,39.91-0.7,59.68
		c-0.23,7.99-0.54,15.82-0.91,23.47c-0.37,7.67-0.85,15.36-1.43,23.06c-0.2,2.81-0.47,5.45-0.8,7.92c-0.34,2.48-0.6,5.12-0.8,7.92
		c-0.16,0.73-0.11,1.92,0.14,3.6c0.25,1.69,0.44,2.85,0.56,3.52c0.38,2,0.98,3.95,1.79,5.87c-1.36,0.6-2.13,1.96-2.31,4.07
		c-0.19,2.11-0.72,3.94-1.6,5.48l0.29,1.5c0.65,2.64,0.88,5.19,0.69,7.63c-0.19,2.45,0.04,5,0.69,7.63
		c-1.4,6.48-2.12,13.87-2.15,22.16c-0.03,8.29-0.27,16.28-0.7,23.95c-0.14,3.13-0.39,6.03-0.76,8.69c-0.37,2.66-0.69,5.23-0.95,7.69
		c-0.2,2.81-0.25,6-0.14,9.61c0.1,3.61,0.15,6.96,0.16,10.07c0.05,4.13,0.01,11.39-0.13,21.77c-0.14,10.38-0.28,21.36-0.41,32.96
		c-0.13,11.59-0.14,22.29-0.02,32.11c0.12,9.82,0.46,16.22,1.04,19.22c0.37,2.69,0.82,5.28,1.38,7.76c0.55,2.48,1.08,5.05,1.59,7.72
		c-1.08,4.35-1.91,8.82-2.5,13.42c-0.59,4.59-1.59,8.59-3,11.97c-2.31-1.29-4.57-2.93-6.79-4.91c-2.22-1.99-4.51-3.8-6.88-5.41
		c-1.49-3.17-2.71-6.47-3.66-9.91c-0.95-3.44-2.25-6.39-3.9-8.83c-0.7-3.67-1.04-7.14-1-10.42c0.03-3.29-0.27-6.6-0.91-9.92
		c-0.26-1.33-0.71-2.97-1.38-4.91c0.58-0.81,1.04-1.67,1.38-2.59c0.34-0.93,1-1.49,1.99-1.68c-0.27-0.65-0.6-1.96-0.98-3.95
		c-0.83-4.33-0.44-8.03,1.18-11.1c-1.66-8.66-2.5-16.87-2.51-24.63c-0.02-7.76,0.12-15.48,0.42-23.12l0.99-22.45
		c0.23-7.98,0.05-15.88-0.57-23.71c0.47-5.96,0.86-11.63,1.15-17.05c0.29-5.41-0.03-11.64-0.94-18.72
		c1.69-13.44,3.01-27.06,3.97-40.89c0.95-13.82,1.03-28.93,0.24-45.35c1.14-4.01,1.86-8.72,2.14-14.13
		c0.29-5.4,0.49-10.88,0.6-16.43c0.11-5.54,0.33-10.94,0.65-16.18c0.32-5.24,1.12-9.87,2.41-13.92c-0.74-5.37-1.22-10.55-1.43-15.52
		c-0.22-4.96-0.27-9.86-0.17-14.72l0.09-14.51c-0.03-5.51-0.2-10.65-0.53-15.43c0.8-8.09,1.21-16.71,1.22-25.86
		c0.01-9.14-0.19-18.42-0.59-27.85c-0.41-9.41-0.88-18.81-1.43-28.2c-0.55-9.38-0.94-18.54-1.18-27.47
		c-0.46-1.63-0.87-3.2-1.23-4.68c-0.36-1.48-0.7-3.05-1.02-4.72c-2.68-13.98-2.78-24.66-0.29-32.05
		c2.48-7.38,6.42-11.58,11.81-12.62c2.69,3.29,5.22,6.51,7.59,9.68S693.68,120.3,696.08,123.64z"/>
</g>
</svg>
