<?xml version="1.0" encoding="utf-8"?>
<!-- Generator: Adobe Illustrator 26.0.1, SVG Export Plug-In . SVG Version: 6.00 Build 0)  -->
<svg version="1.1" id="Layer_1" xmlns="http://www.w3.org/2000/svg" xmlns:xlink="http://www.w3.org/1999/xlink" x="0px" y="0px"
	 viewBox="0 0 100 100" style="enable-background:new 0 0 100 100;" xml:space="preserve">
<style type="text/css">
	.st0{fill:#0000FF;}
</style>
<g>
	<g>
		<path class="st0" d="M82.59,15.96c-2.48-0.4-4.87-1.9-7.36-0.7c-2.22,1.06-4.26,2.91-5.44,5.07c-2.27,4.17-1.75,9.37,1.09,13.13
			c2.96,3.92,8.18,6.48,13.02,4.81c4.68-1.61,9.17-5.13,9.86-10.32c0.82-6.2-4.69-10.12-9.47-12.71c-0.71-0.38-1.34,0.7-0.63,1.08
			c3.8,2.06,8.37,4.84,8.89,9.6c0.52,4.66-3.06,8.38-6.95,10.29c-2.42,1.19-4.86,1.78-7.49,0.94c-1.93-0.62-3.7-1.73-5.13-3.16
			c-2.94-2.95-4.14-7.23-2.87-11.24c0.76-2.4,2.34-4.23,4.41-5.62c1.22-0.82,2.36-1.3,3.85-0.99c1.31,0.27,2.55,0.81,3.88,1.03
			C83.04,17.29,83.38,16.09,82.59,15.96L82.59,15.96z"/>
	</g>
</g>
<g>
	<g>
		<path class="st0" d="M76.65,39.21c-0.73,8.12-1.46,16.24-2.19,24.36c0.39-0.11,0.78-0.21,1.16-0.32
			c-1.13-2.37-2.89-4.31-4.57-6.31c-2.01-2.4-3.93-4.89-5.77-7.42c-3.53-4.84-6.8-9.86-10.08-14.88c-0.44-0.67-1.52-0.05-1.08,0.63
			c3.28,5.02,6.55,10.03,10.08,14.88c1.68,2.31,3.41,4.57,5.22,6.77c1.83,2.23,3.86,4.33,5.12,6.96c0.29,0.61,1.11,0.24,1.16-0.32
			c0.73-8.12,1.46-16.24,2.19-24.36C77.97,38.41,76.72,38.41,76.65,39.21L76.65,39.21z"/>
	</g>
</g>
<g>
	<g>
		<path class="st0" d="M76.51,64.48C81.92,60.83,86.8,56.45,91,51.45c0.51-0.61-0.37-1.5-0.88-0.88
			c-4.13,4.92-8.91,9.24-14.24,12.83C75.22,63.84,75.84,64.93,76.51,64.48L76.51,64.48z"/>
	</g>
</g>
<g>
	<g>
		<path class="st0" d="M74.28,64.04c-0.45,1.82-0.9,3.64-1.35,5.46c-0.23,0.95-0.33,1.84-1.19,2.42c-0.6,0.4-1.21,0.77-1.79,1.21
			c-2.28,1.71-4.19,3.83-5.94,6.07c-3.62,4.64-6.61,9.85-11.24,13.6c-0.62,0.51,0.26,1.39,0.88,0.88c4.82-3.91,7.87-9.39,11.7-14.18
			c1.95-2.43,4.11-4.62,6.73-6.32c1.19-0.77,1.6-1.54,1.93-2.89c0.49-1.97,0.97-3.95,1.46-5.92C75.68,63.6,74.48,63.26,74.28,64.04
			L74.28,64.04z"/>
	</g>
</g>
<g>
	<g>
		<path class="st0" d="M71.86,73.85c2.9,6.9,5.8,13.8,8.7,20.69c0.31,0.73,1.52,0.41,1.21-0.33c-2.9-6.9-5.8-13.8-8.7-20.69
			C72.76,72.78,71.55,73.1,71.86,73.85L71.86,73.85z"/>
	</g>
</g>
<g>
	<g>
		<path class="st0" d="M21.52,87.5c-3.66-1.63-6.74-4.37-8.77-7.84c-0.98-1.68-1.8-3.58-2.12-5.5c-0.45-2.69,1.64-3.7,3.83-4.41
			c0.76-0.25,0.44-1.45-0.33-1.21c-1.95,0.63-4.21,1.53-4.72,3.75c-0.51,2.2,0.64,4.83,1.6,6.77c2.07,4.19,5.61,7.61,9.88,9.51
			C21.62,88.91,22.26,87.83,21.52,87.5L21.52,87.5z"/>
	</g>
</g>
<g>
	<g>
		<path class="st0" d="M15.76,69.29c0.77-2.69,1.43-5.43,1.39-8.25c-0.04-2.87-0.61-5.74-0.14-8.6c0.13-0.79-1.08-1.13-1.21-0.33
			c-0.45,2.77-0.02,5.52,0.08,8.3c0.11,2.94-0.52,5.74-1.33,8.55C14.33,69.73,15.54,70.06,15.76,69.29L15.76,69.29z"/>
	</g>
</g>
<g>
	<g>
		<path class="st0" d="M15.42,69.17c3.03-0.25,6.07-0.31,9.1-0.16c1.55,0.08,3.09,0.21,4.63,0.4c0.81,0.1,1.61,0.21,2.41,0.34
			c0.56,0.09,1.24,0.15,1.74,0.44c1.13,0.66,0.78,2.74,0.61,3.86c-0.19,1.19-0.54,2.35-1.05,3.44c-1.07,2.29-2.77,4.21-4.92,5.53
			c-0.68,0.42-0.06,1.5,0.63,1.08c2.41-1.48,4.33-3.66,5.49-6.24c0.54-1.2,0.91-2.46,1.1-3.76c0.17-1.22,0.41-2.95-0.26-4.08
			c-0.69-1.16-2.17-1.34-3.37-1.53c-1.65-0.26-3.3-0.45-4.96-0.59c-3.71-0.3-7.43-0.28-11.14,0.02
			C14.63,67.99,14.62,69.24,15.42,69.17L15.42,69.17z"/>
	</g>
</g>
<g>
	<g>
		<path class="st0" d="M15.38,51.39c-1.26-2.02-2.18-4.21-2.99-6.44c-0.4-1.11-0.79-2.23-1.15-3.35c-0.38-1.2-0.71-2.44-0.48-3.7
			c0.14-0.79-1.06-1.12-1.21-0.33c-0.46,2.56,0.7,5.12,1.55,7.48c0.86,2.41,1.84,4.8,3.2,6.98C14.72,52.7,15.8,52.07,15.38,51.39
			L15.38,51.39z"/>
	</g>
</g>
<g>
	<g>
		<path class="st0" d="M15.68,52.82c7.22,0.83,14.54-1.4,20.13-6.02c0.62-0.51-0.27-1.39-0.88-0.88
			c-5.34,4.42-12.37,6.45-19.25,5.66C14.88,51.48,14.89,52.73,15.68,52.82L15.68,52.82z"/>
	</g>
</g>
<g>
	<g>
		<path class="st0" d="M17.22,51.04c-0.15-1.08,0.35-2.23,0.69-3.23c0.32-0.94,0.65-1.87,1.02-2.79c0.76-1.94,1.64-3.82,2.61-5.67
			c0.37-0.71-0.7-1.34-1.08-0.63c-1.06,2-2,4.07-2.82,6.18c-0.42,1.07-0.8,2.14-1.15,3.23c-0.35,1.07-0.64,2.11-0.48,3.24
			C16.13,52.17,17.33,51.83,17.22,51.04L17.22,51.04z"/>
	</g>
</g>
<g>
	<g>
		<path class="st0" d="M22.34,38.25c-1.72-0.84-3.46-1.64-5.16-2.52c-1.75-0.91-2.2-3.1-2.41-4.92c-0.21-1.81-0.1-3.65,0.09-5.46
			c0.09-0.85,0.16-1.72,0.32-2.56c0.21-1.1,0.71-1.51,1.84-1.54c2.02-0.04,4.04,0.04,6.06,0.2c1.84,0.14,3.98,0.13,5.59,1.14
			c2.99,1.88,4.02,6.18,3.43,9.47c-0.35,1.97-1.26,3.7-3.26,4.35c-1.9,0.62-4.04,0.64-6.01,0.86c-0.79,0.09-0.8,1.34,0,1.25
			c2.08-0.22,4.34-0.25,6.35-0.9c1.83-0.6,3.08-1.89,3.73-3.69c1.34-3.69,0.5-8.42-2.23-11.28c-1.4-1.47-3.14-1.98-5.11-2.2
			c-2.6-0.3-5.21-0.44-7.83-0.44c-0.87,0-1.85-0.07-2.62,0.43c-0.69,0.45-1,1.26-1.14,2.03c-0.38,2.1-0.59,4.31-0.57,6.44
			c0.02,2.19,0.29,4.94,1.67,6.74c0.73,0.96,1.92,1.38,2.96,1.89c1.22,0.6,2.45,1.19,3.67,1.79C22.43,39.68,23.06,38.6,22.34,38.25
			L22.34,38.25z"/>
	</g>
</g>
</svg>
