<?xml version="1.0" encoding="utf-8"?>
<!-- Generator: Adobe Illustrator 26.0.1, SVG Export Plug-In . SVG Version: 6.00 Build 0)  -->
<svg version="1.1" id="Layer_1" xmlns="http://www.w3.org/2000/svg" xmlns:xlink="http://www.w3.org/1999/xlink" x="0px" y="0px"
	 viewBox="0 0 100 100" style="enable-background:new 0 0 100 100;" xml:space="preserve">
<style type="text/css">
	.st0{fill:#3953A4;}
</style>
<g>
	<g>
		<path class="st0" d="M26.65,94.88c2.66-4.31,5.71-8.33,9.15-12.05c3.02-3.27,6.25-6.44,8.1-10.57c0.19-0.43-0.03-0.93-0.54-0.94
			c-9.76-0.19-19.52-0.24-29.28-0.13c-0.32,0-0.65,0.28-0.62,0.62c0.09,1.02,0.62,1.74,1.4,2.39c1.16,0.96,2.42,1.82,3.66,2.67
			c2.66,1.85,5.41,3.56,8.18,5.24c2.55,1.54,5.11,3.31,7.87,4.45c1.26,0.52,2.85,0.56,3.96,1.34c0.97,0.68,1.63,1.67,2.69,2.25
			c0.43,0.23,1.14-0.17,0.92-0.71c-4.28-10.22-8.56-20.44-12.84-30.66c-0.22-0.52-1.04-0.66-1.21,0c-1.37,5.5-2.06,11.16-1.99,16.83
			c0.04,2.85,0.3,5.67,0.66,8.49c0.38,2.89,0.74,5.77,0.45,8.69c-0.08,0.8,1.17,0.79,1.25,0c0.55-5.56-1-11.15-1.11-16.71
			c-0.12-5.72,0.55-11.42,1.94-16.97c-0.4,0-0.8,0-1.21,0c4.28,10.22,8.56,20.44,12.84,30.66c0.31-0.24,0.61-0.47,0.92-0.71
			c-0.98-0.53-1.62-1.44-2.49-2.11c-0.87-0.67-1.87-0.8-2.91-1.07c-2.7-0.7-5.13-2.47-7.49-3.88c-2.44-1.46-4.87-2.94-7.25-4.5
			c-1.25-0.82-2.5-1.66-3.72-2.54c-1-0.71-3.16-1.79-3.28-3.17c-0.21,0.21-0.42,0.42-0.62,0.62c9.76-0.11,19.52-0.06,29.28,0.13
			c-0.18-0.31-0.36-0.63-0.54-0.94c-1.92,4.29-5.36,7.5-8.47,10.92c-3.29,3.61-6.22,7.54-8.78,11.69
			C25.15,94.94,26.23,95.57,26.65,94.88L26.65,94.88z"/>
	</g>
</g>
<g>
	<g>
		<path class="st0" d="M68.56,78.87c3.28-2.67,6.56-5.34,9.84-8.01c1.64-1.34,3.28-2.67,4.92-4.01c1.31-1.07,2.61-2.13,3.37-3.67
			c0.21-0.42-0.04-0.93-0.54-0.94c-8.9-0.19-17.81-0.14-26.71,0.17c-0.2,0.01-0.45,0.11-0.54,0.31c-0.29,0.66-0.12,1.19,0.42,1.67
			c0.93,0.82,2.31,1.33,3.4,1.92c2.66,1.46,5.33,2.92,7.99,4.38c5.25,2.88,10.51,5.76,15.76,8.64c0.72,0.4,1.27-0.61,0.63-1.08
			c-4.22-3.1-7.64-7.21-9.89-11.94c-2.58-5.43-3.73-11.58-5.26-17.37c-0.12-0.46-0.71-0.6-1.04-0.28c-1.51,1.45-1.31,3.82-1.24,5.74
			c0.09,2.8,0.45,5.58,0.57,8.37c0.23,5.43-1.56,10.82-0.7,16.22c0.13,0.79,1.33,0.46,1.21-0.33c-0.79-4.97,0.88-9.94,0.78-14.93
			c-0.05-2.4-0.32-4.79-0.49-7.18c-0.09-1.27-0.16-2.55-0.14-3.83c0.01-1.13,0.02-2.35,0.9-3.18c-0.35-0.09-0.7-0.18-1.04-0.28
			c1.59,6.03,2.79,12.41,5.56,18.04c2.35,4.78,5.88,8.88,10.16,12.03c0.21-0.36,0.42-0.72,0.63-1.08
			c-4.54-2.49-9.07-4.97-13.61-7.46c-1.14-0.63-13.61-7.23-13.52-7.44c-0.18,0.1-0.36,0.21-0.54,0.31c8.9-0.3,17.81-0.36,26.71-0.17
			c-0.18-0.31-0.36-0.63-0.54-0.94c-0.82,1.66-2.34,2.74-3.74,3.88c-1.58,1.29-3.15,2.57-4.73,3.86c-3.15,2.57-6.31,5.13-9.47,7.7
			C67.05,78.49,67.94,79.37,68.56,78.87L68.56,78.87z"/>
	</g>
</g>
<g>
	<g>
		<path class="st0" d="M20.21,42.16c4.86-5.22,11.56-7.99,17.34-11.98c0.47-0.32,0.35-1.21-0.32-1.16
			c-4.97,0.35-9.94,0.71-14.91,1.06c-0.34,0.02-0.62,0.27-0.62,0.62c0,1.52,1.33,2.3,2.46,3.06c1.75,1.19,3.52,2.36,5.33,3.47
			c3.52,2.17,7.17,4.11,11.03,5.61c0.57,0.22,1.08-0.66,0.61-1.04c-4.07-3.37-8.19-6.89-10.2-11.92c-1.9-4.76-2.34-9.95-4.46-14.63
			c-0.21-0.46-0.84-0.35-1.08,0c-1.27,1.85-1.44,4.26-1.74,6.42c-0.33,2.34-0.56,4.69-0.78,7.05c-0.47,5.05-0.93,10.1-1.39,15.15
			c-0.07,0.8,1.18,0.8,1.25,0c0.43-4.73,0.87-9.46,1.3-14.19c0.21-2.3,0.42-4.6,0.72-6.89c0.29-2.25,0.4-4.99,1.72-6.9
			c-0.36,0-0.72,0-1.08,0c2.21,4.88,2.55,10.36,4.72,15.25c2.13,4.82,6.16,8.26,10.13,11.55c0.2-0.35,0.41-0.7,0.61-1.04
			c-3.33-1.3-6.5-2.94-9.57-4.78c-1.43-0.85-2.83-1.75-4.22-2.66c-0.76-0.5-1.51-1-2.26-1.51c-0.68-0.46-1.85-1.02-1.84-1.98
			c-0.21,0.21-0.42,0.42-0.62,0.62c4.97-0.35,9.94-0.71,14.91-1.06c-0.11-0.39-0.21-0.78-0.32-1.16
			c-5.87,4.05-12.66,6.88-17.59,12.18C18.78,41.86,19.66,42.75,20.21,42.16L20.21,42.16z"/>
	</g>
</g>
<g>
	<g>
		<path class="st0" d="M60.5,40.15c1.72-1.58,3.43-3.16,5.15-4.74c0.88-0.81,1.76-1.63,2.65-2.44c0.67-0.62,1.82-1.33,2.23-2.17
			c0.8-1.66-2.54-1.94-3.44-2.13c-2.17-0.46-4.37-0.75-6.58-0.9c-0.44-0.03-0.67,0.42-0.6,0.79c0.4,2.21,3.33,3.11,4.95,4.23
			c2.32,1.61,4.39,3.55,6.44,5.48c0.59,0.55,1.46-0.32,0.88-0.88c-2.41-2.35-4.36-5.12-5.75-8.19c-0.7-1.55-1.25-3.18-1.63-4.84
			c-0.25-1.08-0.72-2.34-2.09-1.66c-1.24,0.62-1.73,2.39-2.01,3.62c-0.4,1.74-0.54,3.55-0.72,5.31c-0.41,3.95-0.67,7.91-0.93,11.87
			c-0.05,0.8,1.2,0.8,1.25,0c0.12-1.91,0.98-19.92,2.95-19.49c0.39,0.08,0.56,1.55,0.68,1.95c0.18,0.63,0.39,1.26,0.61,1.88
			c0.47,1.29,1.04,2.55,1.69,3.75c1.34,2.47,3.06,4.71,5.06,6.67c0.29-0.29,0.59-0.59,0.88-0.88c-1.8-1.68-3.6-3.36-5.56-4.85
			c-0.98-0.74-2-1.43-3.06-2.04c-0.96-0.55-2.23-1.05-2.45-2.26c-0.2,0.26-0.4,0.53-0.6,0.79c1.85,0.12,3.68,0.35,5.5,0.7
			c0.87,0.17,1.74,0.37,2.6,0.59c0.25,0.06,0.49,0.13,0.74,0.2c0.02-0.3-0.09-0.27-0.31,0.08c-0.37,0.22-0.71,0.66-1.03,0.95
			c-2.79,2.58-5.59,5.15-8.38,7.73C59.03,39.82,59.91,40.7,60.5,40.15L60.5,40.15z"/>
	</g>
</g>
<g>
	<g>
		<path class="st0" d="M75.58,19.02c3.16-4.27,7.07-7.9,10.95-11.5c0.5-0.46-0.04-1.14-0.61-1.04c-2.74,0.46-5.49,0.92-8.23,1.39
			C77,7.98,76.32,8.09,75.63,8.21c-0.62,0.11-1.31,0.14-1.91,0.33c-0.85,0.27-0.9,1.16-0.34,1.75c0.74,0.78,1.8,1.33,2.74,1.81
			c1.16,0.59,2.36,1.12,3.54,1.67c2.53,1.18,5.06,2.36,7.59,3.54c0.53,0.25,1.22-0.28,0.86-0.86c-1.49-2.35-3.67-4.1-5.61-6.06
			c-2.12-2.15-4.04-4.49-5.74-6.99c-0.29-0.43-0.99-0.39-1.14,0.15c-0.92,3.32-1.35,6.74-1.27,10.18c0.02,0.8,1.27,0.81,1.25,0
			c-0.08-3.34,0.33-6.64,1.22-9.85c-0.38,0.05-0.76,0.1-1.14,0.15c1.65,2.44,3.51,4.74,5.55,6.86c1.96,2.03,4.27,3.79,5.79,6.19
			c0.29-0.29,0.57-0.57,0.86-0.86c-2.17-1.01-4.34-2.02-6.5-3.04c-1.99-0.93-4.1-1.75-5.96-2.92C75.21,10.14,75,10,74.79,9.85
			c-0.09-0.07-0.18-0.14-0.27-0.21c-0.17-0.25-0.32-0.22-0.47,0.11c0.01,0.02,1.49-0.26,1.62-0.28c1.18-0.2,2.35-0.4,3.53-0.59
			c2.35-0.4,4.7-0.79,7.06-1.19c-0.2-0.35-0.41-0.7-0.61-1.04c-3.97,3.68-7.92,7.39-11.15,11.76C74.02,19.04,75.1,19.66,75.58,19.02
			L75.58,19.02z"/>
	</g>
</g>
<g>
	<g>
		<path class="st0" d="M83.04,46.17c2.52-1.84,4.88-3.87,7.06-6.11c0.38-0.39,0.1-1.06-0.44-1.07c-2.52-0.01-5.04-0.02-7.56-0.03
			c-0.65,0-0.81,0.83-0.32,1.16c2.24,1.53,4.59,2.9,7.02,4.11c0.73,0.36,1.27-0.6,0.63-1.08c-1.95-1.45-3.32-3.15-4.11-5.46
			c-0.71-2.09-0.97-4.31-1.2-6.49c-0.07-0.64-1.09-0.92-1.23-0.17c-1.17,6.26-2.19,12.56-3.05,18.87c-0.11,0.79,1.1,1.13,1.21,0.33
			c0.86-6.31,1.88-12.61,3.05-18.87c-0.41-0.06-0.82-0.11-1.23-0.17c0.26,2.48,0.54,5.02,1.43,7.37c0.92,2.41,2.43,4.14,4.48,5.66
			c0.21-0.36,0.42-0.72,0.63-1.08c-2.44-1.21-4.78-2.58-7.02-4.11c-0.11,0.39-0.21,0.78-0.32,1.16c2.52,0.01,5.04,0.02,7.56,0.03
			c-0.15-0.36-0.29-0.71-0.44-1.07c-2.1,2.16-4.37,4.14-6.8,5.91C81.77,45.56,82.39,46.65,83.04,46.17L83.04,46.17z"/>
	</g>
</g>
<g>
	<g>
		<path class="st0" d="M7.27,33.95c0.41-2.11,1.25-4.09,2.5-5.84c0.61-0.86,1.34-1.6,2.09-2.33c0.7-0.68,1.34-1.4,1.56-2.38
			c0.08-0.35-0.18-0.84-0.6-0.79c-3.17,0.36-6.3,0.91-9.4,1.68c-0.43,0.11-0.64,0.74-0.28,1.04c1.3,1.08,2.84,1.91,4.27,2.82
			c1.49,0.95,2.99,1.9,4.48,2.85c0.6,0.38,1.27-0.49,0.76-0.98c-2.76-2.66-4.83-5.95-6.01-9.6c-0.17-0.53-1.1-0.65-1.21,0
			c-0.49,3-0.21,6,0.13,9.01c0.09,0.79,1.34,0.8,1.25,0c-0.32-2.87-0.64-5.8-0.17-8.67c-0.4,0-0.8,0-1.21,0
			c1.25,3.85,3.42,7.34,6.33,10.15c0.25-0.33,0.5-0.65,0.76-0.98c-1.42-0.9-2.84-1.81-4.26-2.71c-1.4-0.89-2.96-1.7-4.24-2.76
			c-0.09,0.35-0.18,0.7-0.28,1.04c2.98-0.74,6.01-1.29,9.07-1.64c-0.2-0.26-0.4-0.53-0.6-0.79c-0.23,1.03-1.11,1.68-1.83,2.39
			c-0.72,0.72-1.37,1.52-1.94,2.37c-1.17,1.74-1.98,3.73-2.38,5.79C5.91,34.41,7.11,34.74,7.27,33.95L7.27,33.95z"/>
	</g>
</g>
<g>
	<g>
		<path class="st0" d="M39.76,58c2.5-1.32,5.11-2.37,7.83-3.14c0.2-0.06,0.39-0.23,0.44-0.44c0.34-1.46-1.97-1.6-2.89-1.83
			c-0.78-0.19-1.56-0.38-2.34-0.57c-0.6-0.15-1.4-0.5-1.96-0.09c-1.09,0.8,0.2,2.58,0.62,3.4c0.75,1.47,1.56,2.92,2.4,4.35
			c0.3,0.51,1.2,0.32,1.16-0.32c-0.19-3.91-0.39-7.82-0.58-11.73c-0.01-0.21-0.11-0.45-0.31-0.54c-1.59-0.73-3,1.29-3.56,2.53
			c-0.75,1.68-0.88,3.56-1.64,5.24c-0.33,0.73,0.75,1.36,1.08,0.63c0.62-1.37,0.86-2.85,1.3-4.28c0.2-0.64,0.45-1.27,0.82-1.83
			c0.17-0.26,0.98-1.39,1.38-1.21c-0.1-0.18-0.21-0.36-0.31-0.54c0.19,3.91,0.39,7.82,0.58,11.73c0.39-0.11,0.78-0.21,1.16-0.32
			c-1.11-1.87-2.21-3.78-3.11-5.76c-0.06-0.1-0.11-0.21-0.14-0.33c-0.01-0.15-0.03-0.17-0.07-0.04c-0.1,0.12-0.04,0.17,0.18,0.14
			c0.15,0.04,0.3,0.07,0.45,0.11c0.52,0.13,1.04,0.25,1.56,0.38s1.04,0.25,1.56,0.38c0.3,0.07,0.59,0.15,0.89,0.22
			c0.15,0.04,0.3,0.07,0.45,0.11c0.15,0.09,0.19,0.03,0.13-0.17c0.15-0.15,0.29-0.29,0.44-0.44c-2.82,0.8-5.54,1.89-8.13,3.26
			C38.42,57.3,39.05,58.38,39.76,58L39.76,58z"/>
	</g>
</g>
<g>
	<g>
		<path class="st0" d="M13.65,59.64c3.05-0.67,5.85-2.03,8.31-3.96c0.25-0.2,0.24-0.68,0-0.88c-1.37-1.16-3.52-0.43-5.15-0.41
			c-2.26,0.03-4.5-0.28-6.68-0.89c-0.67-0.19-1.11,0.8-0.48,1.14c4.78,2.62,9.32,5.65,13.56,9.08c0.25-0.33,0.5-0.65,0.76-0.98
			c-1.38-0.73-2.76-1.54-3.75-2.78c-0.95-1.2-1.48-2.67-1.84-4.14c-0.75-3.06-0.83-6.25-2.22-9.13c-0.2-0.41-0.88-0.41-1.08,0
			c-2.44,5.1-2.91,10.96-1.27,16.37c0.23,0.77,1.44,0.44,1.21-0.33c-1.54-5.08-1.15-10.61,1.14-15.41c-0.36,0-0.72,0-1.08,0
			c1.49,3.09,1.37,6.61,2.38,9.84c0.43,1.38,1.05,2.71,1.99,3.82c1.05,1.24,2.47,2.09,3.89,2.84c0.59,0.31,1.34-0.51,0.76-0.98
			c-4.32-3.49-8.94-6.6-13.81-9.28c-0.16,0.38-0.32,0.76-0.48,1.14c1.89,0.53,3.84,0.84,5.81,0.92c0.95,0.04,1.91,0.01,2.86-0.07
			c0.75-0.06,1.97-0.42,2.61,0.13c0-0.29,0-0.59,0-0.88c-2.28,1.79-4.93,3.01-7.75,3.64C12.53,58.61,12.87,59.82,13.65,59.64
			L13.65,59.64z"/>
	</g>
</g>
<g>
	<g>
		<path class="st0" d="M56.52,93.34c2.37-1.59,4.38-3.6,5.99-5.97c0.25-0.36-0.07-1-0.54-0.94c-2.1,0.27-4.21,0.45-6.33,0.51
			c-0.47,0.01-0.78,0.52-0.54,0.94c2.44,4.24,5.33,8.26,9.28,11.22c0.56,0.42,1.29-0.52,0.76-0.98c-2.6-2.24-5-4.52-6.06-7.88
			c-0.98-3.1-1.12-6.38-2.03-9.5c-0.21-0.72-1.15-0.51-1.23,0.17c-0.56,4.87-0.33,9.79,0.67,14.59c0.16,0.79,1.37,0.45,1.21-0.33
			c-0.97-4.69-1.17-9.5-0.62-14.26c-0.41,0.06-0.82,0.11-1.23,0.17c0.96,3.3,1.06,6.8,2.21,10.05c1.18,3.32,3.59,5.64,6.2,7.88
			c0.25-0.33,0.5-0.65,0.76-0.98c-3.77-2.83-6.5-6.73-8.83-10.77c-0.18,0.31-0.36,0.63-0.54,0.94c2.12-0.07,4.23-0.24,6.33-0.51
			c-0.18-0.31-0.36-0.63-0.54-0.94c-1.48,2.18-3.35,4.05-5.54,5.52C55.23,92.71,55.85,93.79,56.52,93.34L56.52,93.34z"/>
	</g>
</g>
</svg>
