<?xml version="1.0" encoding="utf-8"?>
<!-- Generator: Adobe Illustrator 26.0.1, SVG Export Plug-In . SVG Version: 6.00 Build 0)  -->
<svg version="1.1" id="Layer_1" xmlns="http://www.w3.org/2000/svg" xmlns:xlink="http://www.w3.org/1999/xlink" x="0px" y="0px"
	 viewBox="0 0 18 18" style="enable-background:new 0 0 18 18;" xml:space="preserve">
<style type="text/css">
	.st0{fill:#ff0000;}
</style>
<g>
	<g>
		<path class="st0" d="M3.25,16.83c1.39-2.47,3.42-4.53,5.13-6.79c1.84-2.43,3.56-4.95,5.31-7.45c0.33-0.46-0.21-1.05-0.71-0.92
			C11.36,2.1,9.77,2.25,8.11,2.41C6.5,2.56,4.91,2.83,3.33,3.1C2.63,3.21,2.8,4.34,3.49,4.32C5.27,4.29,6.86,3.59,8.5,2.99
			c1.84-0.67,3.65-0.81,5.6-0.81c-0.2-0.15-0.4-0.31-0.6-0.46c0.44,2.99,2.13,5.77,1.92,8.85c-0.05,0.8,1.2,0.8,1.25,0
			c0.22-3.21-1.5-6.07-1.96-9.18c-0.04-0.27-0.35-0.46-0.6-0.46c-1.86,0-3.67,0.08-5.45,0.68c-1.7,0.58-3.33,1.43-5.16,1.46
			C3.55,3.48,3.6,3.89,3.66,4.3c1.67-0.28,3.33-0.56,5.02-0.69c1.58-0.13,3.1-0.32,4.64-0.72c-0.24-0.31-0.47-0.61-0.71-0.92
			c-1.75,2.5-3.47,5.02-5.31,7.45c-1.71,2.25-3.73,4.31-5.13,6.79C1.77,16.9,2.85,17.53,3.25,16.83L3.25,16.83z"/>
	</g>
</g>
</svg>
