<?xml version="1.0" encoding="utf-8"?>
<!-- Generator: Adobe Illustrator 26.0.1, SVG Export Plug-In . SVG Version: 6.00 Build 0)  -->
<svg version="1.1" id="Layer_1" xmlns="http://www.w3.org/2000/svg" xmlns:xlink="http://www.w3.org/1999/xlink" x="0px" y="0px"
	 viewBox="0 0 30 30" style="enable-background:new 0 0 30 30;" xml:space="preserve">
<style type="text/css">
	.st0{fill:#0000ff;}
</style>
<g>
	<g>
		<path class="st0" d="M6.45,27.36c6.55-5.02,13.18-9.93,19.9-14.72c0.78-0.56,0.86-2.07-0.3-2.28c-3.72-0.68-7.29-2.06-10.95-3.01
			c-3.66-0.95-7.36-1.72-11.1-2.33c-1.03-0.17-2,0.82-1.41,1.84c2.26,3.91,5.18,7.36,8.24,10.66c1.55,1.67,3.14,3.31,4.7,4.98
			c1.3,1.39,4.06,3.53,3.61,5.67c0.82,0.11,1.64,0.22,2.46,0.33c-0.18-5.3-0.36-10.61-0.55-15.91c-0.09-2.49-0.17-4.97-0.26-7.46
			c-0.05-1.37,0.46-5.02-1.83-4.95c-1.01,0.03-1.57,1.04-2,1.81c-0.63,1.11-1.22,2.25-1.82,3.38c-1.14,2.11-2.27,4.23-3.37,6.36
			c-2.36,4.54-4.6,9.13-6.61,13.84c-0.62,1.46,1.53,2.74,2.16,1.26c1.82-4.26,3.83-8.44,5.95-12.56c1.02-1.99,2.07-3.97,3.12-5.94
			c0.53-0.99,1.06-1.97,1.59-2.96c0.3-0.56,0.61-1.13,0.91-1.69c0.17-0.32,0.39-0.95,0.7-1.16c-0.32,0.04-0.64,0.08-0.96,0.13
			c-0.42-0.67-0.56-0.67-0.43,0.01c0.01,0.33,0.02,0.66,0.03,0.99c0.02,0.5,0.03,0.99,0.05,1.49c0.04,1.16,0.08,2.32,0.12,3.48
			c0.07,2.15,0.15,4.31,0.22,6.46c0.15,4.47,0.31,8.95,0.46,13.42c0.05,1.35,2.16,1.77,2.46,0.33c0.5-2.45-0.82-4.31-2.38-6.06
			c-1.66-1.86-3.4-3.65-5.11-5.47c-3.44-3.64-6.8-7.36-9.32-11.72C4.28,6.2,3.81,6.81,3.34,7.42c3.73,0.6,7.44,1.37,11.1,2.33
			c3.66,0.95,7.23,2.33,10.95,3.01c-0.1-0.76-0.2-1.52-0.3-2.28c-6.72,4.79-13.35,9.7-19.9,14.72C3.93,26.17,5.17,28.34,6.45,27.36
			L6.45,27.36z"/>
	</g>
</g>
</svg>
