<?xml version="1.0" encoding="iso-8859-1"?>
<!-- Generator: Adobe Illustrator 28.0.0, SVG Export Plug-In . SVG Version: 6.00 Build 0)  -->
<svg version="1.1" xmlns="http://www.w3.org/2000/svg" xmlns:xlink="http://www.w3.org/1999/xlink" x="0px" y="0px"
	 width="344.12px" height="276.94px" viewBox="0 0 344.12 276.94" enable-background="new 0 0 344.12 276.94" xml:space="preserve">
<g id="guides">
</g>
<g id="Layer_1">
	<g>
		<g>
			<g>
				<path fill="#1B5400" d="M120.885,0l60.465,0.157l20.776,53.674l-40.311-0.104L120.885,0z"/>
			</g>
		</g>
		<g>
			<g>
				<path fill="#E81E25" d="M101.649,276.547c-15.212-0.039-29.026-2.737-41.431-8.093c-12.41-5.356-23.104-12.669-32.077-21.95
					c-8.979-9.275-15.92-20.197-20.831-32.759C2.4,201.183-0.037,187.677,0,173.226c0.038-14.451,2.545-27.944,7.521-40.481
					c4.977-12.536,11.975-23.415,21.001-32.648c9.021-9.229,19.753-16.492,32.19-21.784c12.433-5.291,26.261-7.917,41.473-7.878
					c15.972,0.042,30.283,2.996,42.948,8.858c12.659,5.868,23.286,14.007,31.881,24.421c8.138-10.115,18.235-18.141,30.295-24.069
					c12.055-5.923,25.693-8.869,40.904-8.83c15.716,0.041,29.524,2.929,41.429,8.665c11.898,5.734,21.89,13.812,29.979,24.225
					c8.084,10.419,14.201,22.795,18.348,37.126c4.146,14.337,6.196,30.249,6.15,47.742l-141.466-0.367
					c1.986,15.215,7.09,27.148,15.309,35.786c8.213,8.643,19.676,12.98,34.382,13.019c10.137,0.026,18.26-2.104,24.355-6.401
					c6.096-4.293,10.543-10.11,13.355-17.458l50.958,0.132c-1.8,8.617-5.053,16.785-9.761,24.504
					c-4.715,7.724-10.817,14.488-18.308,20.298c-7.496,5.815-16.254,10.415-26.274,13.812c-10.027,3.396-21.375,5.078-34.05,5.045
					c-17.243-0.044-32.191-3-44.851-8.862c-12.664-5.862-23.161-13.876-31.501-24.04c-8.648,10.12-19.252,18.079-31.815,23.875
					C131.889,273.709,117.621,276.589,101.649,276.547z M101.751,236.997c15.972,0.042,28.216-5.755,36.743-17.397
					c8.521-11.636,12.81-26.966,12.858-45.98c0.05-19.015-4.159-34.427-12.619-46.238c-8.466-11.811-20.68-17.737-36.651-17.779
					c-15.972-0.041-28.222,5.821-36.743,17.589c-8.528,11.767-12.811,27.157-12.859,46.172c-0.05,19.015,4.152,34.366,12.619,46.047
					C73.56,231.095,85.78,236.956,101.751,236.997z M248.871,110.744c-13.69-0.035-24.099,3.681-31.213,11.138
					c-7.12,7.462-11.835,17.653-14.15,30.577l86.705,0.226c-0.729-12.421-4.826-22.51-12.281-30.266
					C270.471,114.669,260.784,110.775,248.871,110.744z"/>
			</g>
		</g>
	</g>
</g>
<g id="Layer_3">
</g>
</svg>
