<?xml version="1.0" encoding="iso-8859-1"?>
<!-- Generator: Adobe Illustrator 28.0.0, SVG Export Plug-In . SVG Version: 6.00 Build 0)  -->
<svg version="1.1" xmlns="http://www.w3.org/2000/svg" xmlns:xlink="http://www.w3.org/1999/xlink" x="0px" y="0px"
	 width="233.494px" height="325.994px" viewBox="0 0 233.494 325.994" enable-background="new 0 0 233.494 325.994"
	 xml:space="preserve">
<g id="guides">
</g>
<g id="Layer_1">
	<g>
		<g>
			<g>
				<path fill="#1B5400" d="M63.105,0l60.465,0.157l20.776,53.674l-40.31-0.104L63.105,0z"/>
			</g>
		</g>
		<g>
			<g>
				<path fill="#650082" d="M0,53.723l57.803,0.15l47.506,157.561c1.254,4.318,2.573,9.074,3.956,14.271
					c1.376,5.203,2.695,9.96,3.955,14.271c1.252,5.078,2.505,10.024,3.765,14.841l0.76,0.002c1.279-5.065,2.558-10.13,3.843-15.201
					c1.277-4.305,2.62-8.989,4.029-14.06c1.404-5.066,2.747-9.75,4.03-14.062l47.945-157.312l55.901,0.146l-92.354,271.664
					l-50.198-0.131L0,53.723z"/>
			</g>
		</g>
	</g>
</g>
<g id="Layer_3">
</g>
</svg>
