<?xml version="1.0" encoding="iso-8859-1"?>
<!-- Generator: Adobe Illustrator 28.0.0, SVG Export Plug-In . SVG Version: 6.00 Build 0)  -->
<svg version="1.1" xmlns="http://www.w3.org/2000/svg" xmlns:xlink="http://www.w3.org/1999/xlink" x="0px" y="0px"
	 width="203.832px" height="278.901px" viewBox="0 0 203.832 278.901" enable-background="new 0 0 203.832 278.901"
	 xml:space="preserve">
<g id="guides">
</g>
<g id="Layer_1">
	<g>
		<g>
			<path fill="#660057" d="M101.648,278.9c-15.212-0.039-29.026-2.737-41.431-8.093c-12.41-5.356-23.104-12.669-32.077-21.95
				c-8.978-9.275-15.919-20.197-20.831-32.759C2.399,203.536-0.038,190.03,0,175.579c0.037-14.451,2.544-27.944,7.52-40.481
				c4.977-12.536,11.975-23.415,21.001-32.648c9.021-9.229,19.753-16.492,32.19-21.784c12.434-5.291,26.262-7.917,41.473-7.878
				c15.211,0.04,29.02,2.738,41.43,8.094c12.404,5.356,23.1,12.675,32.077,21.95c8.972,9.28,15.919,20.196,20.831,32.758
				c4.91,12.562,7.348,26.069,7.31,40.521s-2.544,27.943-7.521,40.48c-4.977,12.536-11.98,23.421-21.001,32.649
				c-9.026,9.234-19.759,16.492-32.19,21.784C130.68,276.314,116.859,278.94,101.648,278.9z M43.048,0l60.465,0.157L124.29,53.83
				l-40.311-0.104L43.048,0z M101.75,239.351c15.973,0.042,28.216-5.755,36.743-17.397c8.521-11.636,12.81-26.966,12.858-45.98
				c0.05-19.015-4.158-34.427-12.619-46.238c-8.466-11.811-20.68-17.737-36.65-17.779c-15.973-0.041-28.223,5.821-36.744,17.589
				c-8.527,11.767-12.811,27.157-12.859,46.172s4.152,34.366,12.619,46.047C73.559,233.448,85.779,239.31,101.75,239.351z"/>
		</g>
	</g>
</g>
<g id="Layer_3">
</g>
</svg>
